<svg xmlns="http://www.w3.org/2000/svg" xmlns:xlink="http://www.w3.org/1999/xlink" width="100" zoomAndPan="magnify" viewBox="0 0 75 74.999997" height="100" preserveAspectRatio="xMidYMid meet" version="1.0"><defs><clipPath id="80ddfcf95f"><path d="M 14.304688 26 L 40 26 L 40 32 L 14.304688 32 Z M 14.304688 26 " clip-rule="nonzero"/></clipPath><clipPath id="41d0f26ab0"><path d="M 31 15.089844 L 40 15.089844 L 40 22 L 31 22 Z M 31 15.089844 " clip-rule="nonzero"/></clipPath><clipPath id="2ea95683c7"><path d="M 16 31 L 38 31 L 38 60.089844 L 16 60.089844 Z M 16 31 " clip-rule="nonzero"/></clipPath><clipPath id="34a7da9c5b"><path d="M 27 31 L 38 31 L 38 60.089844 L 27 60.089844 Z M 27 31 " clip-rule="nonzero"/></clipPath><clipPath id="2ede9f8697"><path d="M 34 35 L 60.804688 35 L 60.804688 47 L 34 47 Z M 34 35 " clip-rule="nonzero"/></clipPath><clipPath id="92e54067da"><path d="M 47 35 L 60.804688 35 L 60.804688 47 L 47 47 Z M 47 35 " clip-rule="nonzero"/></clipPath><clipPath id="b25789c74e"><path d="M 34 46 L 60.804688 46 L 60.804688 50 L 34 50 Z M 34 46 " clip-rule="nonzero"/></clipPath><clipPath id="5768b920d7"><path d="M 47 46 L 60.804688 46 L 60.804688 50 L 47 50 Z M 47 46 " clip-rule="nonzero"/></clipPath><clipPath id="b2deff3d8a"><path d="M 34 49 L 60.804688 49 L 60.804688 53 L 34 53 Z M 34 49 " clip-rule="nonzero"/></clipPath><clipPath id="53302f938a"><path d="M 47 49 L 60.804688 49 L 60.804688 53 L 47 53 Z M 47 49 " clip-rule="nonzero"/></clipPath><clipPath id="3cc9505bf1"><path d="M 34 50 L 60.804688 50 L 60.804688 55 L 34 55 Z M 34 50 " clip-rule="nonzero"/></clipPath><clipPath id="1c274d74cf"><path d="M 47 50 L 60.804688 50 L 60.804688 55 L 47 55 Z M 47 50 " clip-rule="nonzero"/></clipPath><clipPath id="98f380a9cc"><path d="M 34 54 L 60.804688 54 L 60.804688 60.089844 L 34 60.089844 Z M 34 54 " clip-rule="nonzero"/></clipPath><clipPath id="3597e56b2d"><path d="M 47 54 L 60.804688 54 L 60.804688 60.089844 L 47 60.089844 Z M 47 54 " clip-rule="nonzero"/></clipPath></defs><g clip-path="url(#80ddfcf95f)"><path fill="#f1f2f2" d="M 39.964844 27.136719 L 39.964844 30.351562 C 39.964844 30.789062 39.601562 31.152344 39.164062 31.152344 L 15.105469 31.152344 C 14.667969 31.152344 14.304688 30.789062 14.304688 30.351562 L 14.304688 27.136719 C 14.304688 26.699219 14.667969 26.335938 15.105469 26.335938 L 39.15625 26.335938 C 39.601562 26.335938 39.964844 26.699219 39.964844 27.136719 Z M 39.964844 27.136719 " fill-opacity="1" fill-rule="nonzero"/></g><path fill="#e6e7e8" d="M 39.964844 27.136719 L 39.964844 30.351562 C 39.964844 30.789062 39.601562 31.152344 39.164062 31.152344 L 27.128906 31.152344 L 27.128906 26.335938 L 39.15625 26.335938 C 39.601562 26.335938 39.964844 26.699219 39.964844 27.136719 Z M 39.964844 27.136719 " fill-opacity="1" fill-rule="nonzero"/><path fill="#0f0e0e" d="M 37.554688 26.335938 L 16.714844 26.335938 L 18.136719 22.058594 C 18.25 21.742188 18.554688 21.511719 18.898438 21.511719 L 35.378906 21.511719 C 35.722656 21.511719 36.03125 21.734375 36.140625 22.058594 Z M 37.554688 26.335938 " fill-opacity="1" fill-rule="nonzero"/><path fill="#050404" d="M 37.554688 26.335938 L 27.128906 26.335938 L 27.128906 21.519531 L 35.371094 21.519531 C 35.714844 21.519531 36.019531 21.742188 36.132812 22.070312 Z M 37.554688 26.335938 " fill-opacity="1" fill-rule="nonzero"/><g clip-path="url(#41d0f26ab0)"><path fill="#f1f2f2" d="M 34.617188 15.09375 C 34.023438 15.09375 33.5 15.492188 33.34375 16.070312 L 31.882812 21.519531 L 33.539062 21.519531 L 34.832031 16.703125 L 39.964844 16.703125 L 39.964844 15.09375 Z M 34.617188 15.09375 " fill-opacity="1" fill-rule="nonzero"/></g><g clip-path="url(#2ea95683c7)"><path fill="#c26620" d="M 37.554688 31.152344 L 37.054688 37.199219 C 35.296875 38.726562 34.179688 40.96875 34.179688 43.484375 L 34.179688 44.902344 C 34.179688 45.589844 34.730469 46.148438 35.425781 46.148438 L 35.816406 46.148438 C 34.914062 46.148438 34.179688 46.886719 34.179688 47.789062 L 34.179688 48.28125 C 34.179688 49.1875 34.90625 49.914062 35.816406 49.914062 L 35.351562 49.914062 C 34.710938 49.914062 34.179688 50.445312 34.179688 51.097656 C 34.179688 51.292969 34.226562 51.46875 34.320312 51.625 L 34.308594 51.636719 C 34.226562 51.8125 34.179688 52.019531 34.179688 52.230469 L 34.179688 53.183594 C 34.179688 53.957031 34.792969 54.578125 35.566406 54.589844 L 35.546875 54.832031 C 34.738281 55.214844 34.179688 56.023438 34.179688 56.984375 L 34.179688 57.691406 C 34.179688 58.472656 34.5625 59.171875 35.136719 59.609375 C 35.007812 59.890625 34.730469 60.085938 34.414062 60.085938 L 19.859375 60.085938 C 19.4375 60.085938 19.09375 59.769531 19.058594 59.347656 L 16.714844 31.152344 Z M 37.554688 31.152344 " fill-opacity="1" fill-rule="nonzero"/></g><g clip-path="url(#34a7da9c5b)"><path fill="#a44118" d="M 37.554688 31.152344 L 37.054688 37.199219 C 35.296875 38.726562 34.179688 40.96875 34.179688 43.484375 L 34.179688 44.902344 C 34.179688 45.589844 34.730469 46.148438 35.425781 46.148438 L 35.816406 46.148438 C 34.914062 46.148438 34.179688 46.886719 34.179688 47.789062 L 34.179688 48.28125 C 34.179688 49.1875 34.90625 49.914062 35.816406 49.914062 L 35.351562 49.914062 C 34.710938 49.914062 34.179688 50.445312 34.179688 51.097656 C 34.179688 51.292969 34.226562 51.46875 34.320312 51.625 L 34.308594 51.636719 C 34.226562 51.8125 34.179688 52.019531 34.179688 52.230469 L 34.179688 53.183594 C 34.179688 53.957031 34.792969 54.578125 35.566406 54.589844 L 35.546875 54.832031 C 34.738281 55.214844 34.179688 56.023438 34.179688 56.984375 L 34.179688 57.691406 C 34.179688 58.472656 34.5625 59.171875 35.136719 59.609375 C 35.007812 59.890625 34.730469 60.085938 34.414062 60.085938 L 27.128906 60.085938 L 27.128906 31.152344 Z M 37.554688 31.152344 " fill-opacity="1" fill-rule="nonzero"/></g><g clip-path="url(#2ede9f8697)"><path fill="#ffea82" d="M 60.804688 43.484375 L 60.804688 44.902344 C 60.804688 45.589844 60.246094 46.148438 59.558594 46.148438 L 35.425781 46.148438 C 34.738281 46.148438 34.179688 45.601562 34.179688 44.902344 L 34.179688 43.484375 C 34.179688 40.96875 35.296875 38.726562 37.054688 37.199219 C 38.511719 35.929688 40.410156 35.167969 42.484375 35.167969 L 52.5 35.167969 C 57.085938 35.167969 60.804688 38.894531 60.804688 43.484375 Z M 60.804688 43.484375 " fill-opacity="1" fill-rule="nonzero"/></g><g clip-path="url(#92e54067da)"><path fill="#fec34e" d="M 60.804688 43.484375 L 60.804688 44.902344 C 60.804688 45.589844 60.246094 46.148438 59.558594 46.148438 L 47.488281 46.148438 L 47.488281 35.167969 L 52.5 35.167969 C 57.085938 35.167969 60.804688 38.894531 60.804688 43.484375 Z M 60.804688 43.484375 " fill-opacity="1" fill-rule="nonzero"/></g><g clip-path="url(#b25789c74e)"><path fill="#df6d27" d="M 60.804688 47.789062 L 60.804688 48.28125 C 60.804688 49.1875 60.082031 49.914062 59.167969 49.914062 L 35.816406 49.914062 C 34.914062 49.914062 34.179688 49.1875 34.179688 48.28125 L 34.179688 47.789062 C 34.179688 46.886719 34.90625 46.148438 35.816406 46.148438 L 59.167969 46.148438 C 60.082031 46.148438 60.804688 46.886719 60.804688 47.789062 Z M 60.804688 47.789062 " fill-opacity="1" fill-rule="nonzero"/></g><g clip-path="url(#5768b920d7)"><path fill="#a44118" d="M 60.804688 47.789062 L 60.804688 48.28125 C 60.804688 49.1875 60.082031 49.914062 59.167969 49.914062 L 47.488281 49.914062 L 47.488281 46.148438 L 59.167969 46.148438 C 60.082031 46.148438 60.804688 46.886719 60.804688 47.789062 Z M 60.804688 47.789062 " fill-opacity="1" fill-rule="nonzero"/></g><g clip-path="url(#b2deff3d8a)"><path fill="#7ec352" d="M 60.804688 51.085938 C 60.804688 51.28125 60.757812 51.46875 60.667969 51.625 C 60.65625 51.636719 60.65625 51.644531 60.648438 51.65625 C 60.460938 52.027344 60.035156 52.269531 59.625 52.269531 C 57.605469 52.269531 57.605469 50.816406 55.589844 50.816406 C 53.570312 50.816406 53.570312 52.269531 51.550781 52.269531 C 49.523438 52.269531 49.523438 50.816406 47.507812 50.816406 L 47.496094 50.816406 C 45.488281 50.824219 45.488281 52.269531 43.460938 52.269531 C 41.433594 52.269531 41.433594 50.816406 39.414062 50.816406 C 37.554688 50.816406 37.40625 52.046875 35.816406 52.242188 C 35.796875 52.242188 35.789062 52.25 35.78125 52.25 C 35.648438 52.269531 35.519531 52.277344 35.359375 52.277344 C 35.277344 52.277344 35.210938 52.269531 35.136719 52.25 C 35.101562 52.242188 35.054688 52.230469 35.027344 52.222656 C 34.941406 52.203125 34.878906 52.175781 34.8125 52.140625 C 34.683594 52.074219 34.570312 51.980469 34.476562 51.867188 C 34.421875 51.804688 34.375 51.71875 34.328125 51.644531 C 34.246094 51.488281 34.1875 51.308594 34.1875 51.113281 C 34.1875 50.460938 34.71875 49.929688 35.359375 49.929688 L 59.632812 49.929688 C 60.277344 49.902344 60.804688 50.433594 60.804688 51.085938 Z M 60.804688 51.085938 " fill-opacity="1" fill-rule="nonzero"/></g><g clip-path="url(#53302f938a)"><path fill="#62bb46" d="M 60.804688 51.085938 C 60.804688 51.28125 60.757812 51.46875 60.667969 51.625 C 60.65625 51.636719 60.65625 51.644531 60.648438 51.65625 C 60.628906 51.691406 60.609375 51.730469 60.582031 51.765625 C 60.507812 51.859375 60.414062 51.980469 60.304688 52.035156 C 60.238281 52.09375 60.171875 52.121094 60.097656 52.15625 C 59.949219 52.230469 59.78125 52.261719 59.617188 52.261719 C 57.597656 52.261719 57.597656 50.808594 55.578125 50.808594 C 53.5625 50.808594 53.5625 52.261719 51.542969 52.261719 C 49.515625 52.261719 49.515625 50.808594 47.496094 50.808594 L 47.488281 50.808594 L 47.488281 49.902344 L 59.625 49.902344 C 60.277344 49.902344 60.804688 50.433594 60.804688 51.085938 Z M 60.804688 51.085938 " fill-opacity="1" fill-rule="nonzero"/></g><g clip-path="url(#3cc9505bf1)"><path fill="#df6d27" d="M 60.804688 52.222656 L 60.804688 53.171875 C 60.804688 53.957031 60.183594 54.578125 59.402344 54.578125 L 35.585938 54.578125 C 35.574219 54.578125 35.574219 54.578125 35.566406 54.578125 C 34.792969 54.570312 34.179688 53.945312 34.179688 53.171875 L 34.179688 52.222656 C 34.179688 52.019531 34.226562 51.804688 34.308594 51.625 L 34.320312 51.617188 C 34.347656 51.703125 34.402344 51.777344 34.46875 51.839844 C 34.5625 51.953125 34.671875 52.046875 34.804688 52.109375 C 34.867188 52.148438 34.941406 52.1875 35.015625 52.195312 C 35.042969 52.214844 35.089844 52.222656 35.128906 52.222656 C 35.203125 52.242188 35.277344 52.25 35.351562 52.25 C 35.5 52.25 35.640625 52.242188 35.769531 52.222656 C 35.789062 52.222656 35.796875 52.214844 35.808594 52.214844 C 37.398438 52.019531 37.546875 50.789062 39.40625 50.789062 C 41.425781 50.789062 41.425781 52.242188 43.453125 52.242188 C 45.46875 52.242188 45.46875 50.796875 47.488281 50.789062 L 47.496094 50.789062 C 49.515625 50.789062 49.515625 52.242188 51.542969 52.242188 C 53.5625 52.242188 53.5625 50.789062 55.578125 50.789062 C 57.597656 50.789062 57.597656 52.242188 59.617188 52.242188 C 60.042969 52.242188 60.472656 51.988281 60.65625 51.609375 L 60.667969 51.609375 C 60.757812 51.804688 60.804688 52.007812 60.804688 52.222656 Z M 60.804688 52.222656 " fill-opacity="1" fill-rule="nonzero"/></g><g clip-path="url(#1c274d74cf)"><path fill="#a44118" d="M 60.804688 52.222656 L 60.804688 53.171875 C 60.804688 53.957031 60.183594 54.578125 59.402344 54.578125 L 47.488281 54.578125 L 47.488281 50.808594 L 47.496094 50.808594 C 49.515625 50.808594 49.515625 52.261719 51.542969 52.261719 C 53.5625 52.261719 53.5625 50.808594 55.578125 50.808594 C 57.597656 50.808594 57.597656 52.261719 59.617188 52.261719 C 59.867188 52.25 60.097656 52.1875 60.292969 52.035156 C 60.441406 51.945312 60.5625 51.804688 60.636719 51.65625 C 60.648438 51.644531 60.648438 51.636719 60.65625 51.625 L 60.667969 51.625 C 60.757812 51.804688 60.804688 52.007812 60.804688 52.222656 Z M 60.804688 52.222656 " fill-opacity="1" fill-rule="nonzero"/></g><g clip-path="url(#98f380a9cc)"><path fill="#ffea82" d="M 60.804688 56.964844 L 60.804688 57.671875 C 60.804688 58.996094 59.734375 60.066406 58.414062 60.066406 L 36.570312 60.066406 C 36.03125 60.066406 35.539062 59.890625 35.148438 59.589844 C 34.5625 59.152344 34.1875 58.453125 34.1875 57.671875 L 34.1875 56.964844 C 34.1875 56.003906 34.746094 55.183594 35.554688 54.8125 C 35.566406 54.804688 35.585938 54.792969 35.59375 54.785156 C 35.890625 54.636719 36.214844 54.570312 36.570312 54.570312 L 58.414062 54.570312 C 59.734375 54.570312 60.804688 55.652344 60.804688 56.964844 Z M 60.804688 56.964844 " fill-opacity="1" fill-rule="nonzero"/></g><g clip-path="url(#3597e56b2d)"><path fill="#fec34e" d="M 60.804688 56.964844 L 60.804688 57.671875 C 60.804688 58.996094 59.734375 60.066406 58.414062 60.066406 L 47.488281 60.066406 L 47.488281 54.570312 L 58.414062 54.570312 C 59.734375 54.570312 60.804688 55.652344 60.804688 56.964844 Z M 60.804688 56.964844 " fill-opacity="1" fill-rule="nonzero"/></g></svg>