<svg xmlns="http://www.w3.org/2000/svg" xmlns:xlink="http://www.w3.org/1999/xlink" width="500" zoomAndPan="magnify" viewBox="0 0 375 374.999991" height="500" preserveAspectRatio="xMidYMid meet" version="1.0"><defs><clipPath id="6d2db9b5ee"><path d="M 63.773438 0 L 311.273438 0 L 311.273438 375 L 63.773438 375 Z M 63.773438 0 " clip-rule="nonzero"/></clipPath><clipPath id="f0c6d01b79"><path d="M 63.773438 33.570312 L 311.273438 33.570312 L 311.273438 44.589844 L 63.773438 44.589844 Z M 63.773438 33.570312 " clip-rule="nonzero"/></clipPath><clipPath id="0d993e9517"><path d="M 63.773438 326.242188 L 311.273438 326.242188 L 311.273438 337.160156 L 63.773438 337.160156 Z M 63.773438 326.242188 " clip-rule="nonzero"/></clipPath></defs><path fill="#ffffff" d="M 303.660156 40.148438 L 71.390625 40.148438 C 70.789062 40.148438 70.300781 40.636719 70.300781 41.234375 L 70.300781 329.539062 C 70.300781 330.140625 70.789062 330.628906 71.390625 330.628906 L 303.660156 330.628906 C 304.261719 330.628906 304.75 330.140625 304.75 329.539062 L 304.75 41.234375 C 304.75 40.636719 304.261719 40.148438 303.660156 40.148438 " fill-opacity="1" fill-rule="nonzero"/><path fill="#ffffff" d="M 71.390625 337.15625 C 71.019531 337.15625 70.65625 337.121094 70.300781 337.066406 L 70.300781 348.582031 C 70.300781 359.976562 79.570312 369.25 90.96875 369.25 L 284.082031 369.25 C 295.476562 369.25 304.75 359.976562 304.75 348.582031 L 304.75 337.066406 C 304.390625 337.121094 304.03125 337.15625 303.660156 337.15625 L 71.390625 337.15625 " fill-opacity="1" fill-rule="nonzero"/><path fill="#ffffff" d="M 284.082031 5.894531 L 90.96875 5.894531 C 79.570312 5.894531 70.300781 15.167969 70.300781 26.566406 L 70.300781 33.707031 C 70.65625 33.660156 71.019531 33.621094 71.390625 33.621094 L 303.660156 33.621094 C 304.03125 33.621094 304.394531 33.660156 304.75 33.707031 L 304.75 26.566406 C 304.75 15.167969 295.476562 5.894531 284.082031 5.894531 " fill-opacity="1" fill-rule="nonzero"/><path fill="#ffffff" d="M 304.578125 329.507812 C 304.578125 330.105469 304.089844 330.59375 303.492188 330.59375 L 71.21875 330.554688 C 70.621094 330.554688 70.132812 330.066406 70.132812 329.46875 L 70.179688 41.164062 C 70.179688 40.5625 70.667969 40.078125 71.269531 40.078125 L 303.542969 40.117188 C 304.140625 40.117188 304.628906 40.601562 304.628906 41.203125 L 304.578125 329.507812 " fill-opacity="1" fill-rule="nonzero"/><path fill="#009688" d="M 288.5 369.210938 L 108.4375 369.183594 C 97.8125 369.179688 89.167969 359.90625 89.171875 348.507812 L 89.171875 336.996094 C 89.503906 337.046875 89.839844 337.082031 90.1875 337.082031 L 306.761719 337.121094 C 307.105469 337.121094 307.445312 337.085938 307.777344 337.035156 L 307.773438 348.546875 C 307.769531 359.941406 299.125 369.214844 288.5 369.210938 " fill-opacity="1" fill-rule="nonzero"/><path fill="#009688" d="M 307.828125 33.671875 C 307.496094 33.621094 307.160156 33.585938 306.8125 33.585938 L 90.238281 33.546875 C 89.894531 33.546875 89.554688 33.585938 89.222656 33.636719 L 89.226562 26.488281 C 89.226562 15.09375 97.875 5.824219 108.5 5.824219 L 288.5625 5.855469 C 299.1875 5.855469 307.828125 15.128906 307.828125 26.527344 L 307.828125 33.671875 " fill-opacity="1" fill-rule="nonzero"/><path fill="#f99f5c" d="M 113.953125 65.667969 C 113.953125 63.867188 114.65625 62.402344 115.519531 62.402344 L 127.003906 62.40625 C 127.867188 62.40625 128.566406 63.871094 128.566406 65.671875 L 128.550781 164.765625 L 113.9375 164.761719 L 113.953125 65.667969 " fill-opacity="1" fill-rule="nonzero"/><path fill="#f99f5c" d="M 146.554688 128.050781 C 146.558594 126.253906 148.019531 124.789062 149.820312 124.789062 L 173.75 124.792969 C 175.550781 124.792969 177.011719 126.257812 177.011719 128.058594 L 177.007812 164.773438 L 146.550781 164.769531 L 146.554688 128.050781 " fill-opacity="1" fill-rule="nonzero"/><path fill="#f99f5c" d="M 198.214844 109.855469 C 198.214844 108.054688 199.679688 106.589844 201.476562 106.589844 L 225.40625 106.59375 C 227.207031 106.59375 228.671875 108.058594 228.671875 109.859375 L 228.660156 164.785156 L 198.207031 164.78125 L 198.214844 109.855469 " fill-opacity="1" fill-rule="nonzero"/><path fill="#f99f5c" d="M 280.316406 164.792969 L 249.859375 164.789062 L 249.871094 93.980469 C 249.871094 92.179688 251.335938 90.714844 253.136719 90.714844 L 277.066406 90.722656 C 278.863281 90.722656 280.328125 92.183594 280.328125 93.984375 L 280.316406 164.792969 " fill-opacity="1" fill-rule="nonzero"/><path fill="#ffde82" d="M 280.308594 205.175781 C 280.308594 205.773438 279.871094 206.261719 279.332031 206.261719 L 114.90625 206.234375 C 114.367188 206.234375 113.929688 205.746094 113.929688 205.144531 L 113.933594 193.050781 L 280.3125 193.078125 L 280.308594 205.175781 " fill-opacity="1" fill-rule="nonzero"/><g clip-path="url(#6d2db9b5ee)"><path fill="#00105e" d="M 90.96875 5.890625 C 79.570312 5.890625 70.300781 15.167969 70.300781 26.5625 L 70.300781 348.582031 C 70.300781 359.976562 79.570312 369.25 90.96875 369.25 L 284.082031 369.25 C 295.476562 369.25 304.75 359.976562 304.75 348.582031 L 304.75 26.5625 C 304.75 15.167969 295.476562 5.890625 284.082031 5.890625 Z M 284.082031 375.777344 L 90.96875 375.777344 C 75.972656 375.777344 63.773438 363.578125 63.773438 348.582031 L 63.773438 26.5625 C 63.773438 11.566406 75.972656 -0.632812 90.96875 -0.632812 L 284.082031 -0.632812 C 299.078125 -0.632812 311.277344 11.566406 311.277344 26.5625 L 311.277344 348.582031 C 311.277344 363.578125 299.078125 375.777344 284.082031 375.777344 " fill-opacity="1" fill-rule="nonzero"/></g><g clip-path="url(#f0c6d01b79)"><path fill="#00105e" d="M 308.011719 44.5 C 306.210938 44.5 304.75 43.039062 304.75 41.238281 C 304.75 40.636719 304.261719 40.148438 303.660156 40.148438 L 71.390625 40.148438 C 70.789062 40.148438 70.300781 40.636719 70.300781 41.238281 C 70.300781 43.039062 68.839844 44.5 67.039062 44.5 C 65.234375 44.5 63.773438 43.039062 63.773438 41.238281 C 63.773438 37.035156 67.191406 33.621094 71.390625 33.621094 L 303.660156 33.621094 C 307.859375 33.621094 311.273438 37.035156 311.273438 41.238281 C 311.273438 43.039062 309.8125 44.5 308.011719 44.5 " fill-opacity="1" fill-rule="nonzero"/></g><g clip-path="url(#0d993e9517)"><path fill="#00105e" d="M 303.660156 337.15625 L 71.390625 337.15625 C 67.191406 337.15625 63.773438 333.738281 63.773438 329.539062 C 63.773438 327.738281 65.234375 326.277344 67.039062 326.277344 C 68.839844 326.277344 70.300781 327.738281 70.300781 329.539062 C 70.300781 330.140625 70.789062 330.628906 71.390625 330.628906 L 303.660156 330.628906 C 304.257812 330.628906 304.75 330.140625 304.75 329.539062 C 304.75 327.738281 306.210938 326.277344 308.011719 326.277344 C 309.8125 326.277344 311.273438 327.738281 311.273438 329.539062 C 311.273438 333.738281 307.859375 337.15625 303.660156 337.15625 " fill-opacity="1" fill-rule="nonzero"/></g><path fill="#00105e" d="M 108.992188 245.621094 C 107.1875 245.621094 105.726562 244.160156 105.726562 242.355469 L 105.726562 231.617188 C 105.726562 229.816406 107.1875 228.355469 108.992188 228.355469 C 110.792969 228.355469 112.253906 229.816406 112.253906 231.617188 L 112.253906 242.355469 C 112.253906 244.160156 110.792969 245.621094 108.992188 245.621094 " fill-opacity="1" fill-rule="nonzero"/><path fill="#00105e" d="M 108.992188 314.378906 C 107.1875 314.378906 105.726562 312.917969 105.726562 311.117188 L 105.726562 300.378906 C 105.726562 298.578125 107.1875 297.113281 108.992188 297.113281 C 110.792969 297.113281 112.253906 298.578125 112.253906 300.378906 L 112.253906 311.117188 C 112.253906 312.917969 110.792969 314.378906 108.992188 314.378906 " fill-opacity="1" fill-rule="nonzero"/><path fill="#00105e" d="M 115.59375 303.640625 L 102.386719 303.640625 C 94.644531 303.640625 88.34375 298.144531 88.34375 291.386719 L 88.34375 290.9375 C 88.34375 289.136719 89.804688 287.675781 91.609375 287.675781 C 93.410156 287.675781 94.871094 289.136719 94.871094 290.9375 L 94.871094 291.386719 C 94.871094 294.492188 98.3125 297.113281 102.386719 297.113281 L 115.59375 297.113281 C 119.667969 297.113281 123.109375 294.492188 123.109375 291.386719 L 123.109375 280.363281 C 123.109375 277.253906 119.667969 274.632812 115.59375 274.632812 L 102.386719 274.632812 C 94.644531 274.632812 88.34375 269.132812 88.34375 262.375 L 88.34375 251.351562 C 88.34375 244.589844 94.644531 239.09375 102.386719 239.09375 L 115.59375 239.09375 C 123.339844 239.09375 129.636719 244.589844 129.636719 251.351562 C 129.636719 253.152344 128.175781 254.613281 126.375 254.613281 C 124.570312 254.613281 123.109375 253.152344 123.109375 251.351562 C 123.109375 248.246094 119.667969 245.621094 115.59375 245.621094 L 102.386719 245.621094 C 98.3125 245.621094 94.871094 248.246094 94.871094 251.351562 L 94.871094 262.375 C 94.871094 265.480469 98.3125 268.105469 102.386719 268.105469 L 115.59375 268.105469 C 123.339844 268.105469 129.636719 273.601562 129.636719 280.363281 L 129.636719 291.386719 C 129.636719 298.144531 123.339844 303.640625 115.59375 303.640625 " fill-opacity="1" fill-rule="nonzero"/><path fill="#00105e" d="M 95.035156 164.828125 L 125.492188 164.828125 L 125.492188 65.734375 C 125.492188 63.9375 124.027344 62.472656 122.230469 62.472656 L 98.300781 62.472656 C 96.5 62.472656 95.035156 63.9375 95.035156 65.734375 Z M 128.753906 171.355469 L 91.773438 171.355469 C 89.972656 171.355469 88.511719 169.894531 88.511719 168.09375 L 88.511719 65.734375 C 88.511719 60.335938 92.902344 55.945312 98.300781 55.945312 L 122.230469 55.945312 C 127.625 55.945312 132.019531 60.335938 132.019531 65.734375 L 132.019531 168.09375 C 132.019531 169.894531 130.558594 171.355469 128.753906 171.355469 " fill-opacity="1" fill-rule="nonzero"/><path fill="#00105e" d="M 146.691406 164.828125 L 177.148438 164.828125 L 177.148438 128.109375 C 177.148438 126.3125 175.683594 124.847656 173.882812 124.847656 L 149.953125 124.847656 C 148.15625 124.847656 146.691406 126.3125 146.691406 128.109375 Z M 180.410156 171.355469 L 143.429688 171.355469 C 141.625 171.355469 140.164062 169.894531 140.164062 168.09375 L 140.164062 128.109375 C 140.164062 122.710938 144.558594 118.320312 149.953125 118.320312 L 173.882812 118.320312 C 179.28125 118.320312 183.675781 122.710938 183.675781 128.109375 L 183.675781 168.09375 C 183.675781 169.894531 182.210938 171.355469 180.410156 171.355469 " fill-opacity="1" fill-rule="nonzero"/><path fill="#00105e" d="M 198.347656 164.828125 L 228.800781 164.828125 L 228.800781 109.90625 C 228.800781 108.105469 227.335938 106.640625 225.539062 106.640625 L 201.609375 106.640625 C 199.808594 106.640625 198.347656 108.105469 198.347656 109.90625 Z M 232.066406 171.355469 L 195.082031 171.355469 C 193.28125 171.355469 191.820312 169.894531 191.820312 168.09375 L 191.820312 109.90625 C 191.820312 104.507812 196.210938 100.113281 201.609375 100.113281 L 225.539062 100.113281 C 230.9375 100.113281 235.328125 104.507812 235.328125 109.90625 L 235.328125 168.09375 C 235.328125 169.894531 233.867188 171.355469 232.066406 171.355469 " fill-opacity="1" fill-rule="nonzero"/><path fill="#00105e" d="M 250 164.832031 L 280.453125 164.832031 L 280.453125 94.019531 C 280.453125 92.222656 278.992188 90.757812 277.191406 90.757812 L 253.261719 90.757812 C 251.464844 90.757812 250 92.222656 250 94.019531 Z M 283.71875 171.355469 L 246.738281 171.355469 C 244.933594 171.355469 243.472656 169.898438 243.472656 168.09375 L 243.472656 94.019531 C 243.472656 88.625 247.867188 84.230469 253.261719 84.230469 L 277.191406 84.230469 C 282.589844 84.230469 286.984375 88.625 286.984375 94.019531 L 286.984375 168.09375 C 286.984375 169.898438 285.519531 171.355469 283.71875 171.355469 " fill-opacity="1" fill-rule="nonzero"/><path fill="#00105e" d="M 95.035156 193.117188 L 95.035156 205.210938 C 95.035156 205.8125 95.523438 206.296875 96.125 206.296875 L 279.367188 206.296875 C 279.96875 206.296875 280.453125 205.8125 280.453125 205.210938 L 280.453125 193.117188 Z M 279.367188 212.824219 L 96.125 212.824219 C 91.925781 212.824219 88.511719 209.410156 88.511719 205.210938 L 88.511719 189.851562 C 88.511719 188.050781 89.972656 186.589844 91.773438 186.589844 L 283.71875 186.589844 C 285.519531 186.589844 286.980469 188.050781 286.980469 189.851562 L 286.980469 205.210938 C 286.980469 209.410156 283.566406 212.824219 279.367188 212.824219 " fill-opacity="1" fill-rule="nonzero"/><path fill="#00105e" d="M 283.71875 245.621094 L 151.234375 245.621094 C 149.433594 245.621094 147.972656 244.160156 147.972656 242.359375 C 147.972656 240.554688 149.433594 239.09375 151.234375 239.09375 L 283.71875 239.09375 C 285.519531 239.09375 286.980469 240.554688 286.980469 242.359375 C 286.980469 244.160156 285.519531 245.621094 283.71875 245.621094 " fill-opacity="1" fill-rule="nonzero"/><path fill="#00105e" d="M 283.71875 303.640625 L 151.234375 303.640625 C 149.433594 303.640625 147.972656 302.179688 147.972656 300.378906 C 147.972656 298.578125 149.433594 297.113281 151.234375 297.113281 L 283.71875 297.113281 C 285.519531 297.113281 286.980469 298.578125 286.980469 300.378906 C 286.980469 302.179688 285.519531 303.640625 283.71875 303.640625 " fill-opacity="1" fill-rule="nonzero"/><path fill="#00105e" d="M 283.71875 274.632812 L 151.234375 274.632812 C 149.433594 274.632812 147.972656 273.171875 147.972656 271.367188 C 147.972656 269.566406 149.433594 268.105469 151.234375 268.105469 L 283.71875 268.105469 C 285.519531 268.105469 286.980469 269.566406 286.980469 271.367188 C 286.980469 273.171875 285.519531 274.632812 283.71875 274.632812 " fill-opacity="1" fill-rule="nonzero"/></svg>