<svg xmlns="http://www.w3.org/2000/svg" xmlns:xlink="http://www.w3.org/1999/xlink" width="100" zoomAndPan="magnify" viewBox="0 0 75 74.999997" height="100" preserveAspectRatio="xMidYMid meet" version="1.0"><defs><clipPath id="211414eda9"><path d="M 27 12.523438 L 60 12.523438 L 60 27 L 27 27 Z M 27 12.523438 " clip-rule="nonzero"/></clipPath><clipPath id="1f81108446"><path d="M 10.296875 25 L 62 25 L 62 62.773438 L 10.296875 62.773438 Z M 10.296875 25 " clip-rule="nonzero"/></clipPath><clipPath id="6af79a3f43"><path d="M 41 37 L 65.046875 37 L 65.046875 51 L 41 51 Z M 41 37 " clip-rule="nonzero"/></clipPath></defs><g clip-path="url(#211414eda9)"><path fill="#3fbb69" d="M 27.652344 26.832031 L 47.109375 12.523438 L 59.226562 26.832031 Z M 27.652344 26.832031 " fill-opacity="1" fill-rule="nonzero"/></g><path stroke-linecap="round" transform="matrix(0.0314114, 0, 0, -0.0314, -29.125492, 104.40306)" fill="none" stroke-linejoin="round" d="M 2285.216387 2754.049109 L 2416.911401 2853.944452 L 2522.739972 2729.790588 " stroke="#ffffff" stroke-width="30" stroke-opacity="1" stroke-miterlimit="10"/><path fill="#ffffff" d="M 47.90625 27.332031 C 48.152344 26.761719 48.289062 26.132812 48.289062 25.46875 C 48.289062 22.824219 46.117188 20.679688 43.441406 20.679688 C 40.761719 20.679688 38.589844 22.824219 38.589844 25.46875 C 38.589844 26.132812 38.726562 26.761719 38.972656 27.332031 L 47.90625 27.332031 " fill-opacity="1" fill-rule="nonzero"/><path fill="#3fbb69" d="M 16.425781 27.277344 L 38.589844 14.789062 L 48 27.277344 Z M 16.425781 27.277344 " fill-opacity="1" fill-rule="nonzero"/><path fill="#ffffff" d="M 38.464844 27.777344 C 38.707031 27.207031 38.84375 26.574219 38.84375 25.914062 C 38.84375 23.269531 36.671875 21.125 33.996094 21.125 C 31.320312 21.125 29.148438 23.269531 29.148438 25.914062 C 29.148438 26.574219 29.285156 27.207031 29.527344 27.777344 L 38.464844 27.777344 " fill-opacity="1" fill-rule="nonzero"/><path stroke-linecap="round" transform="matrix(0.0314114, 0, 0, -0.0314, -29.125492, 104.40306)" fill="none" stroke-linejoin="round" d="M 2003.297033 2723.197247 L 2136.359983 2800.202499 L 2233.856575 2666.345227 " stroke="#ffffff" stroke-width="30" stroke-opacity="1" stroke-miterlimit="10"/><g clip-path="url(#1f81108446)"><path fill="#004aad" d="M 61.851562 57.269531 C 61.851562 60.308594 59.5 62.769531 56.605469 62.769531 L 15.527344 62.769531 C 12.632812 62.769531 10.28125 60.308594 10.28125 57.269531 L 10.28125 31.4375 C 10.28125 28.398438 12.632812 25.933594 15.527344 25.933594 L 56.605469 25.933594 C 59.5 25.933594 61.851562 28.398438 61.851562 31.4375 L 61.851562 57.269531 " fill-opacity="1" fill-rule="nonzero"/></g><g clip-path="url(#6af79a3f43)"><path fill="#5271ff" d="M 65.027344 37.765625 L 47.96875 37.765625 C 44.144531 37.765625 41.042969 40.714844 41.042969 44.355469 C 41.042969 47.992188 44.144531 50.941406 47.96875 50.941406 L 65.027344 50.941406 L 65.027344 37.765625 " fill-opacity="1" fill-rule="nonzero"/></g><path fill="#f89f27" d="M 49.3125 44.355469 C 49.3125 45.828125 48.117188 47.023438 46.640625 47.023438 C 45.167969 47.023438 43.972656 45.828125 43.972656 44.355469 C 43.972656 42.882812 45.167969 41.683594 46.640625 41.683594 C 48.117188 41.683594 49.3125 42.882812 49.3125 44.355469 " fill-opacity="1" fill-rule="nonzero"/></svg>