<svg xmlns="http://www.w3.org/2000/svg" xmlns:xlink="http://www.w3.org/1999/xlink" width="100" zoomAndPan="magnify" viewBox="0 0 75 74.999997" height="100" preserveAspectRatio="xMidYMid meet" version="1.0"><defs><clipPath id="a6de92514a"><path d="M 5 46 L 68 46 L 68 63.101562 L 5 63.101562 Z M 5 46 " clip-rule="nonzero"/></clipPath><clipPath id="7cec46d36a"><path d="M 26 12.101562 L 31 12.101562 L 31 20 L 26 20 Z M 26 12.101562 " clip-rule="nonzero"/></clipPath></defs><path fill="#f4900c" d="M 63.9375 40.433594 L 62.0625 40.433594 C 61.035156 40.433594 60.191406 39.585938 60.191406 38.546875 C 60.191406 37.507812 61.035156 36.65625 62.0625 36.65625 L 63.9375 36.65625 C 64.964844 36.65625 65.808594 37.507812 65.808594 38.546875 C 65.808594 39.585938 64.964844 40.433594 63.9375 40.433594 " fill-opacity="1" fill-rule="nonzero"/><g clip-path="url(#a6de92514a)"><path fill="#292f33" d="M 22.738281 54.601562 C 22.738281 59.296875 18.964844 63.101562 14.3125 63.101562 C 9.660156 63.101562 5.886719 59.296875 5.886719 54.601562 C 5.886719 49.910156 9.660156 46.101562 14.3125 46.101562 C 18.964844 46.101562 22.738281 49.910156 22.738281 54.601562 M 67.683594 54.601562 C 67.683594 59.296875 63.910156 63.101562 59.253906 63.101562 C 54.601562 63.101562 50.828125 59.296875 50.828125 54.601562 C 50.828125 49.910156 54.601562 46.101562 59.253906 46.101562 C 63.910156 46.101562 67.683594 49.910156 67.683594 54.601562 " fill-opacity="1" fill-rule="nonzero"/></g><path fill="#99aab5" d="M 18.992188 54.601562 C 18.992188 57.210938 16.898438 59.324219 14.3125 59.324219 C 11.726562 59.324219 9.628906 57.210938 9.628906 54.601562 C 9.628906 51.992188 11.726562 49.878906 14.3125 49.878906 C 16.898438 49.878906 18.992188 51.992188 18.992188 54.601562 M 63.9375 54.601562 C 63.9375 57.210938 61.839844 59.324219 59.253906 59.324219 C 56.667969 59.324219 54.574219 57.210938 54.574219 54.601562 C 54.574219 51.992188 56.667969 49.878906 59.253906 49.878906 C 61.839844 49.878906 63.9375 51.992188 63.9375 54.601562 " fill-opacity="1" fill-rule="nonzero"/><path fill="#dd2e44" d="M 14.976562 40.589844 L 19.871094 27.390625 L 18.992188 25.324219 C 18.992188 25.324219 17.277344 25.339844 17.121094 23.433594 C 16.964844 21.535156 21.628906 17.621094 22.738281 17.769531 C 23.847656 17.921875 22.738281 21.546875 22.738281 21.546875 C 22.738281 21.546875 27.082031 22.597656 26.484375 25.324219 C 25.886719 28.050781 22.035156 41.734375 22.035156 41.734375 C 22.035156 41.734375 25.3125 43.386719 26.484375 46.101562 C 27.324219 48.050781 29.632812 48.023438 32.101562 47.992188 C 34.570312 47.960938 40.328125 47.976562 41.464844 44.214844 C 42.601562 40.453125 43.335938 38.546875 43.335938 38.546875 L 41.464844 36.65625 L 60.191406 32.878906 C 60.191406 32.878906 58.523438 36.625 62.0625 38.546875 C 66.125 40.753906 67.417969 43.589844 69.554688 47.992188 C 70.957031 50.886719 70.394531 51.574219 67.683594 51.769531 C 64.046875 52.035156 59.367188 52.496094 56.839844 52.78125 C 54.597656 53.03125 52.5625 55.894531 49.042969 55.894531 C 45.519531 55.894531 30.21875 55.988281 26.484375 55.542969 C 19.9375 54.773438 17.574219 49.878906 7.757812 49.878906 C 3.878906 49.878906 5.773438 46.925781 7.808594 44.84375 C 10.074219 42.527344 14.929688 40.3125 14.976562 40.589844 " fill-opacity="1" fill-rule="nonzero"/><path fill="#be1931" d="M 45.210938 57.433594 L 39.59375 57.433594 C 37.53125 57.433594 35.847656 55.734375 35.847656 53.65625 C 35.847656 51.578125 37.53125 49.878906 39.59375 49.878906 L 45.210938 49.878906 C 47.269531 49.878906 48.957031 51.578125 48.957031 53.65625 C 48.957031 55.734375 47.269531 57.433594 45.210938 57.433594 " fill-opacity="1" fill-rule="nonzero"/><path fill="#be1931" d="M 39.59375 57.433594 L 30.230469 57.433594 C 29.199219 57.433594 28.355469 56.585938 28.355469 55.546875 C 28.355469 54.507812 29.199219 53.65625 30.230469 53.65625 L 39.59375 53.65625 C 40.621094 53.65625 41.464844 54.507812 41.464844 55.546875 C 41.464844 56.585938 40.621094 57.433594 39.59375 57.433594 " fill-opacity="1" fill-rule="nonzero"/><path fill="#292f33" d="M 45.210938 36.65625 C 42.179688 36.65625 40.65625 37.234375 39.59375 34.769531 C 38.527344 32.300781 39.554688 30.992188 41.464844 30.992188 C 43.375 30.992188 52.191406 30.648438 56.445312 29.101562 C 60.699219 27.554688 62.164062 27.53125 62.0625 29.101562 C 61.964844 30.671875 60.191406 32.878906 60.191406 32.878906 C 60.191406 32.878906 57.84375 36.65625 45.210938 36.65625 M 30.230469 25.324219 L 24.140625 25.324219 C 23.113281 25.324219 22.269531 24.472656 22.269531 23.433594 C 22.269531 22.398438 23.113281 21.546875 24.140625 21.546875 L 30.230469 21.546875 C 31.257812 21.546875 32.101562 22.398438 32.101562 23.433594 C 32.101562 24.472656 31.257812 25.324219 30.230469 25.324219 " fill-opacity="1" fill-rule="nonzero"/><path fill="#f4900c" d="M 18.058594 25.324219 C 17.542969 25.324219 17.121094 24.898438 17.121094 24.378906 L 17.121094 22.492188 C 17.121094 21.972656 17.542969 21.546875 18.058594 21.546875 C 18.570312 21.546875 18.992188 21.972656 18.992188 22.492188 L 18.992188 24.378906 C 18.992188 24.898438 18.570312 25.324219 18.058594 25.324219 " fill-opacity="1" fill-rule="nonzero"/><g clip-path="url(#7cec46d36a)"><path fill="#292f33" d="M 28.472656 19.65625 L 28.238281 19.65625 C 27.273438 19.65625 26.484375 18.859375 26.484375 17.886719 L 26.484375 13.871094 C 26.484375 12.898438 27.273438 12.101562 28.242188 12.101562 L 28.472656 12.101562 C 29.441406 12.101562 30.230469 12.898438 30.230469 13.871094 L 30.230469 17.886719 C 30.230469 18.859375 29.441406 19.65625 28.472656 19.65625 " fill-opacity="1" fill-rule="nonzero"/></g><path fill="#292f33" d="M 22.703125 23.558594 L 22.664062 23.519531 C 22.3125 23.164062 22.3125 22.578125 22.664062 22.226562 L 28 16.839844 C 28.355469 16.484375 28.929688 16.484375 29.285156 16.839844 L 29.328125 16.882812 C 29.679688 17.238281 29.679688 17.820312 29.328125 18.175781 L 23.988281 23.558594 C 23.636719 23.914062 23.058594 23.914062 22.703125 23.558594 " fill-opacity="1" fill-rule="nonzero"/></svg>